HIERARCHY
ROOT Hips
{
	OFFSET 0.00000 0.00000 0.00000
	CHANNELS 6 Xposition Yposition Zposition Zrotation Yrotation Xrotation 
	JOINT LHipJoint
	{
		OFFSET 0 0 0
		CHANNELS 3 Zrotation Yrotation Xrotation
		JOINT LeftUpLeg
		{
			OFFSET 1.53139 -1.83434 0.76626
			CHANNELS 3 Zrotation Yrotation Xrotation
			JOINT LeftLeg
			{
				OFFSET 2.56112 -7.03663 0.00000
				CHANNELS 3 Zrotation Yrotation Xrotation
				JOINT LeftFoot
				{
					OFFSET 2.59983 -7.14299 0.00000
					CHANNELS 3 Zrotation Yrotation Xrotation
					JOINT LeftToeBase
					{
						OFFSET 0.13742 -0.37757 2.00054
						CHANNELS 3 Zrotation Yrotation Xrotation
						End Site
						{
							OFFSET 0.00000 -0.00000 1.02897
						}
					}
				}
			}
		}
	}
	JOINT RHipJoint
	{
		OFFSET 0 0 0
		CHANNELS 3 Zrotation Yrotation Xrotation
		JOINT RightUpLeg
		{
			OFFSET -1.40122 -1.83435 0.76627
			CHANNELS 3 Zrotation Yrotation Xrotation
			JOINT RightLeg
			{
				OFFSET -2.54052 -6.98003 0.00000
				CHANNELS 3 Zrotation Yrotation Xrotation
				JOINT RightFoot
				{
					OFFSET -2.63179 -7.23079 0.00000
					CHANNELS 3 Zrotation Yrotation Xrotation
					JOINT RightToeBase
					{
						OFFSET -0.24131 -0.66299 2.03908
						CHANNELS 3 Zrotation Yrotation Xrotation
						End Site
						{
							OFFSET -0.00000 -0.00000 1.07391
						}
					}
				}
			}
		}
	}
	JOINT LowerBack
	{
		OFFSET 0 0 0
		CHANNELS 3 Zrotation Yrotation Xrotation
		JOINT Spine
		{
			OFFSET 0.01174 2.10302 -0.29778
			CHANNELS 3 Zrotation Yrotation Xrotation
			JOINT Spine1
			{
				OFFSET 0.00772 2.13227 -0.01247
				CHANNELS 3 Zrotation Yrotation Xrotation
				JOINT Neck
				{
					OFFSET 0 0 0
					CHANNELS 3 Zrotation Yrotation Xrotation
					JOINT Neck1
					{
						OFFSET -0.09219 1.60848 0.31481
						CHANNELS 3 Zrotation Yrotation Xrotation
						JOINT Head
						{
							OFFSET 0.13974 1.65456 -0.31134
							CHANNELS 3 Zrotation Yrotation Xrotation
							End Site
							{
								OFFSET 0.04742 1.69515 -0.14578
							}
						}
					}
				}
				JOINT LeftShoulder
				{
					OFFSET 0 0 0
					CHANNELS 3 Zrotation Yrotation Xrotation
					JOINT LeftArm
					{
						OFFSET 3.24909 1.02882 -0.23993
						CHANNELS 3 Zrotation Yrotation Xrotation
						JOINT LeftForeArm
						{
							OFFSET 5.32955 -0.00000 -0.00000
							CHANNELS 3 Zrotation Yrotation Xrotation
							JOINT LeftHand
							{
								OFFSET 3.69232 -0.00000 -0.00000
								CHANNELS 3 Zrotation Yrotation Xrotation
								JOINT LeftFingerBase
								{
									OFFSET 0 0 0
									CHANNELS 3 Zrotation Yrotation Xrotation
									JOINT LeftHandIndex1
									{
										OFFSET 0.53660 -0.00000 -0.00000
										CHANNELS 3 Zrotation Yrotation Xrotation
										End Site
										{
											OFFSET 0.43262 -0.00000 -0.00000
										}
									}
								}
								JOINT LThumb
								{
									OFFSET 0 0 0
									CHANNELS 3 Zrotation Yrotation Xrotation
									End Site
									{
										OFFSET 0.43922 -0.00000 0.43922
									}
								}
							}
						}
					}
				}
				JOINT RightShoulder
				{
					OFFSET 0 0 0
					CHANNELS 3 Zrotation Yrotation Xrotation
					JOINT RightArm
					{
						OFFSET -3.21387 0.93002 -0.34594
						CHANNELS 3 Zrotation Yrotation Xrotation
						JOINT RightForeArm
						{
							OFFSET -5.23431 -0.00000 0.00000
							CHANNELS 3 Zrotation Yrotation Xrotation
							JOINT RightHand
							{
								OFFSET -3.55301 -0.00000 -0.00000
								CHANNELS 3 Zrotation Yrotation Xrotation
								JOINT RightFingerBase
								{
									OFFSET 0 0 0
									CHANNELS 3 Zrotation Yrotation Xrotation
									JOINT RightHandIndex1
									{
										OFFSET -0.77252 -0.00000 -0.00000
										CHANNELS 3 Zrotation Yrotation Xrotation
										End Site
										{
											OFFSET -0.62283 -0.00000 -0.00000
										}
									}
								}
								JOINT RThumb
								{
									OFFSET 0 0 0
									CHANNELS 3 Zrotation Yrotation Xrotation
									End Site
									{
										OFFSET -0.63234 -0.00000 0.63234
									}
								}
							}
						}
					}
				}
			}
		}
	}
}
MOTION
Frames: 10
Frame Time: 0.2
0.00 0.00 0.00 0 0 0 0 0 0 -21 0 0 0 0 0 0 0 0 0 0 0 0 0 0 21 0 0 0 0 0 0 0 0 0 0 0 0 0 0 0 0 0 0 0 0 0 0 -16 0 0 21 0 0 11 0 0 0 -8 0 0 0 0 0 0 0 0 0 0 0 0 0 0 0 0 0 0 0 0 8 0 0 0 0 0 0 0 0 0 0 0 0 0 0 0 0 0
0.00 0.00 0.00 3.9137 -4.9574 -2.3094 0.0000 0.0000 0.0000 -26.3611 -1.3554 -7.4405 0.3009 3.5271 9.7497 -0.0709 -5.1539 4.0947 0.0024 -0.3148 -0.8648 0.0000 0.0000 0.0000 16.4586 -0.4358 -4.9886 -9.6443 -17.2049 58.2929 0.1508 -9.5739 3.6185 -0.5122 -4.5873 12.7351 -2.9077 2.5967 10.4649 -1.0102 3.0735 1.7787 0.1565 1.5525 -4.1026 -11.7248 -3.9503 -14.4340 6.9011 -4.9231 38.4190 4.2908 -2.8177 16.8605 0.0000 -0.0000 0.0000 -88.3819 7.1222 16.7193 12.7195 -20.8748 -2.3524 -0.0000 -0.0000 13.7277 18.1917 23.9567 7.6004 -7.1250 0.0000 -0.0000 -11.8156 54.6556 -2.8323 0.0000 -0.0000 0.0000 89.2325 2.0541 15.0985 -16.6372 26.3770 -3.9248 0.0000 0.0000 8.1198 -13.9060 8.8190 -2.1738 7.1250 -0.0000 -0.0000 9.3433 -20.9498 5.4567
0.00 0.00 0.00 6.2435 -2.5269 -2.9119 0.0000 0.0000 0.0000 -30.0418 2.7806 -1.8228 0.8179 5.7706 16.1203 -0.0287 -10.5534 -6.9365 0.0003 -0.1146 -0.3150 0.0000 0.0000 0.0000 11.9694 1.1955 -25.6819 -9.2882 -16.9896 57.0815 -0.2119 -3.6380 -10.8165 -0.1448 -2.4524 6.7578 -6.1933 0.4860 10.5549 -0.8486 -0.0902 1.8089 2.6140 0.0308 -4.0205 -12.0230 -3.5655 -14.6236 6.4960 -4.1357 38.8936 4.3201 -2.6261 17.0545 -0.0000 0.0000 0.0000 -85.8936 -2.0091 24.0700 15.0713 -24.2454 -3.2552 -0.0000 -0.0000 9.1642 22.2744 25.1130 9.8617 -7.1250 0.0000 -0.0000 -8.0770 56.6598 -2.3190 -0.0000 0.0000 0.0000 90.1462 -5.4224 13.9085 -17.5824 27.6192 -4.3539 0.0000 0.0000 5.5215 -14.4770 8.4649 -2.1766 7.1250 -0.0000 -0.0000 8.9460 -21.2841 5.1504
0.00 0.00 0.00 7.1249 -2.1261 -2.1219 0.0000 0.0000 0.0000 -30.8357 4.4923 2.8202 0.4534 4.3196 11.9776 -0.0191 -10.8244 -7.2923 0.0004 0.1300 0.3573 0.0000 0.0000 0.0000 10.8023 3.8245 -28.3314 -5.1367 -13.5362 41.4101 -0.0373 -7.2771 -11.1830 -0.4107 -4.1138 11.3970 -7.5707 -0.0658 10.1647 -0.8381 -0.9504 1.5917 3.5114 -0.3740 -3.9292 -11.8597 -3.4344 -15.0814 6.2651 -3.8310 38.2819 4.2083 -2.4864 16.7806 -0.0000 0.0000 0.0000 -84.8091 -5.3906 26.5838 17.0318 -26.8996 -4.1017 -0.0000 -0.0000 6.5029 23.2230 25.9574 10.6367 -7.1250 0.0000 -0.0000 -7.4290 57.7370 -2.3249 -0.0000 0.0000 0.0000 90.1858 -6.6286 12.8080 -16.5863 26.3091 -3.9022 0.0000 0.0000 6.5610 -14.3162 7.9328 -2.0171 7.1250 -0.0000 -0.0000 9.0817 -21.8326 5.1160
0.00 0.00 0.00 6.9456 -2.0839 -1.6503 0.0000 0.0000 0.0000 -30.4535 5.1645 8.6409 0.1712 2.6651 7.3478 0.0875 -8.7192 -7.6629 0.0023 -0.3130 -0.8601 0.0000 0.0000 0.0000 10.0105 8.0930 -27.0825 -1.8161 -8.4721 24.1575 0.1429 -7.6772 -6.8288 -0.0677 -1.6789 4.6191 -7.5089 -0.5443 9.7388 -0.7229 -1.5300 1.6754 3.6606 -0.6780 -3.5351 -11.6618 -3.2969 -15.7019 6.1271 -3.5581 38.1792 4.1550 -2.3576 16.8326 0.0000 0.0000 0.0000 -83.6635 -7.8084 28.1663 19.4141 -29.9299 -5.2358 -0.0000 -0.0000 4.7627 21.3884 25.4937 9.5687 -7.1250 0.0000 -0.0000 -9.1915 56.8607 -2.6873 0.0000 0.0000 0.0000 90.6546 -6.9909 9.7844 -15.0395 24.2011 -3.2421 0.0000 0.0000 7.4245 -14.7221 8.4504 -2.2113 7.1250 -0.0000 -0.0000 8.7701 -21.2877 5.0460
0.00 0.00 0.00 4.2541 -3.7338 -2.4036 0.0000 0.0000 0.0000 -26.9650 2.2190 12.7163 1.8287 8.4997 24.2423 -0.0941 -5.6470 3.7024 1.0288 -6.4520 -18.1016 0.0000 0.0000 0.0000 16.3523 7.1741 -21.2994 -2.1072 -9.0858 26.0641 -0.0014 0.1973 -0.6618 -0.0022 -0.3003 0.8250 -5.7484 -0.8515 9.9106 0.6318 -1.7163 1.5429 4.1193 -0.7751 -3.7578 -11.0590 -2.8116 -16.1925 5.1003 -2.5924 38.8413 3.7832 -2.0405 17.1545 -0.0000 0.0000 0.0000 -86.1857 -4.6516 25.9841 20.9813 -31.8065 -6.0401 -0.0000 -0.0000 3.3826 23.0764 23.7130 9.7225 -7.1250 0.0000 -0.0000 -6.6572 55.3782 -1.7015 -0.0000 0.0000 0.0000 90.5904 -6.9835 2.0477 -12.6176 20.7243 -2.3162 0.0000 0.0000 12.9551 -13.0448 7.8504 -1.8126 7.1250 -0.0000 -0.0000 10.0041 -21.9657 5.6200
0.00 0.00 0.00 2.2145 -3.3767 -2.7105 0.0000 0.0000 0.0000 -23.2808 0.3132 4.3577 4.7202 13.0616 39.5997 0.8055 -6.6543 20.6399 0.0711 1.7204 4.7336 0.0000 0.0000 0.0000 19.7059 6.2205 -16.0973 -1.8227 -8.4865 24.2018 -0.0203 -0.4568 -2.9027 -0.0509 -1.4557 4.0035 -3.9609 -0.9029 10.2386 0.9947 -1.5883 1.7948 3.4783 -0.7379 -3.7306 -11.0858 -3.0737 -16.3188 5.9643 -3.2942 37.9526 4.0152 -2.1803 16.8037 -0.0000 -0.0000 0.0000 -86.0189 -2.8033 27.9364 19.5341 -30.0770 -5.2959 -0.0000 -0.0000 4.9208 19.7994 25.7266 8.8819 -7.1250 0.0000 -0.0000 -10.9851 56.7588 -3.1925 -0.0000 -0.0000 0.0000 90.5818 -6.5510 6.1842 -13.7798 22.4191 -2.7436 0.0000 0.0000 10.1843 -13.2211 7.4319 -1.7406 7.1250 -0.0000 -0.0000 9.8972 -22.3821 5.4627
0.00 0.00 0.00 -0.2584 -3.4696 -3.0875 0.0000 0.0000 0.0000 -19.0665 -1.1858 -7.9908 8.5395 16.5020 54.4833 0.0535 -3.8475 7.3773 0.2271 -3.0676 -8.4669 0.0000 0.0000 0.0000 23.4316 4.1126 -10.2540 -1.5564 -7.8735 22.3306 -0.1165 0.5059 -6.2865 -0.0351 -1.2091 3.3243 -1.5621 -0.3450 11.2558 1.3027 -0.5850 1.9238 2.3266 -0.2616 -4.2698 -11.5238 -3.6952 -15.8041 6.7677 -4.4330 37.1923 4.2122 -2.5826 16.4624 -0.0000 0.0000 0.0000 -86.2922 -1.2331 28.8514 17.6329 -27.6846 -4.3773 -0.0000 -0.0000 11.1028 18.1090 23.4664 7.4196 -7.1250 0.0000 -0.0000 -11.6811 54.1480 -2.6540 -0.0000 0.0000 0.0000 89.2555 -4.0496 12.2677 -15.0618 24.2321 -3.2513 0.0000 0.0000 8.8710 -14.3179 9.2720 -2.3548 7.1250 -0.0000 -0.0000 9.0335 -20.4700 5.3702
0.00 0.00 0.00 -2.7979 -4.0640 -2.1821 0.0000 0.0000 0.0000 -16.0913 -6.4133 -19.6848 3.5182 11.4901 33.9511 0.0960 2.8101 -7.5855 0.1353 -2.3711 -6.5324 0.0000 0.0000 0.0000 26.6944 2.0763 -4.3618 -1.8999 -8.6545 24.7204 -0.6929 1.2176 -15.3584 -0.0111 0.6800 -1.8687 1.3987 1.3331 11.2648 1.0231 1.9880 1.5942 -0.0194 0.9638 -4.6361 -12.0530 -4.6085 -16.1536 7.5840 -5.8395 36.7506 4.3955 -3.0972 16.5796 -0.0000 -0.0000 0.0000 -87.8270 3.3331 25.5685 16.2202 -25.8184 -3.7414 -0.0000 -0.0000 7.2369 21.4224 24.0551 9.0861 -7.1250 0.0000 -0.0000 -8.5269 55.3951 -2.1874 -0.0000 -0.0000 0.0000 86.3943 3.9447 15.4260 -16.4369 26.1095 -3.8362 0.0000 0.0000 6.2569 -15.9048 6.3387 -1.8019 7.1250 -0.0000 -0.0000 7.9862 -23.4037 4.1964
0.00 0.00 0.00 -6.1068 71.7293 -3.6211 0.0000 0.0000 0.0000 -24.7603 -0.4728 -22.0987 0.7065 5.3723 14.9737 -0.0457 4.3430 0.6750 1.4827 7.6932 21.7860 0.0000 0.0000 0.0000 19.1724 -8.6240 11.4736 -2.0106 -8.8882 25.4461 -0.0693 -3.4553 4.9285 -0.2880 3.4513 -9.5379 3.1719 2.4749 9.7092 0.0930 3.6654 0.2890 -2.1853 1.7431 -4.9472 -10.7486 -3.7416 -20.1507 6.1773 -3.0570 33.7887 3.9986 -1.5645 15.6013 0.0000 -0.0000 0.0000 -86.2673 7.3157 -11.7746 8.1226 -13.7515 -0.9811 -0.0000 -0.0000 32.6131 19.9763 28.7412 9.9146 -7.1250 0.0000 -0.0000 -12.4522 59.8118 -4.5445 0.0000 -0.0000 0.0000 85.3539 4.2781 10.5682 -19.2718 29.7550 -5.1650 0.0000 0.0000 2.0007 -17.6293 7.3647 -2.3327 7.1250 -0.0000 -0.0000 6.6927 -22.2737 3.6811
